<svg width="32" height="32" viewBox="0 0 32 32" fill="none" xmlns="http://www.w3.org/2000/svg">
<rect width="32" height="32" rx="7" fill="black"/>
<path d="M23.8977 19.024C24.5223 22.1136 22.2048 25 19.2002 25H11C9.34315 25 8 23.6569 8 22V10C8 8.34315 9.34315 7 11 7H19.2002C22.2048 7 24.5223 9.8863 23.8977 12.976V12.976C23.8842 13.0185 23.8805 13.0636 23.8706 13.1071C23.6126 14.2407 23.0201 15.2276 22.2111 16.0001C21.9299 15.7311 21.6239 15.4885 21.2929 15.2785C19.5125 14.1306 17.6698 13.0744 15.8582 11.9789C14.2778 11.0146 12.9847 11.8018 12.9847 13.7172V18.2828C12.9847 20.1982 14.2778 20.9854 15.8582 20.0277C17.6697 18.9257 19.5124 17.8695 21.2929 16.7216C21.6239 16.5117 21.9299 16.269 22.2111 16.0001C23.0216 16.7739 23.6149 17.7695 23.8721 18.906C23.881 18.9452 23.8855 18.9857 23.8977 19.024V19.024Z" fill="white"/>
</svg>
