<svg width="32" height="32" viewBox="0 0 32 32" fill="none" xmlns="http://www.w3.org/2000/svg">
<rect width="32" height="32" fill="black"/>
<path d="M17.0404 22.6905C13.2326 22.6905 10.0415 19.6067 10.0415 15.9866C10.0415 12.3665 13.2594 9.28271 17.0404 9.28271V11.9643C14.7342 11.9643 12.7231 13.8414 12.7231 15.9866C12.7231 18.1319 14.7342 20.009 17.0404 20.009V22.6905Z" fill="white"/>
<path d="M17.0134 28C10.3899 28 5 22.6101 5 15.9866C5 9.36313 10.3899 4 17.0134 4V6.68156C11.8648 6.68156 7.70838 10.8648 7.70838 15.9866C7.70838 21.1084 11.8916 25.2916 17.0134 25.2916V28Z" fill="white"/>
<path d="M17.0134 25.3183V22.6367C20.6604 22.6367 23.6369 19.6602 23.6369 16.0132C23.6369 12.3663 20.6604 9.36296 17.0134 9.36296V6.6814C22.162 6.6814 26.3185 10.8646 26.3185 15.9864C26.3185 21.1082 22.162 25.3183 17.0134 25.3183Z" fill="white"/>
<path d="M16.9866 20.0894V17.4078C17.7642 17.4078 18.4078 16.7642 18.4078 15.9866C18.4078 15.2089 17.7642 14.5654 16.9866 14.5654V11.8838C19.2391 11.8838 21.0894 13.7341 21.0894 15.9866C21.0894 18.2391 19.2659 20.0894 16.9866 20.0894Z" fill="white"/>
</svg>
